<?xml version="1.0" standalone="no"?>
<!DOCTYPE svg PUBLIC "-//W3C//DTD SVG 20010904//EN"
 "http://www.w3.org/TR/2001/REC-SVG-20010904/DTD/svg10.dtd">
<svg version="1.0" xmlns="http://www.w3.org/2000/svg"
 width="833.000000pt" height="191.000000pt" viewBox="0 0 833.000000 191.000000"
 preserveAspectRatio="xMidYMid meet">

<g transform="translate(0.000000,191.000000) scale(0.100000,-0.100000)"
fill="#000000" stroke="none">
<path d="M1430 1794 c0 -93 3 -115 14 -111 7 3 105 55 217 116 l204 111 -217
0 -218 0 0 -116z"/>
<path d="M4030 1906 c0 -7 164 -146 172 -146 3 0 5 8 3 18 -2 9 -4 43 -4 75
l-1 57 -85 0 c-47 0 -85 -2 -85 -4z"/>
<path d="M7124 1550 c-11 -4 -26 -15 -33 -24 -7 -9 -19 -16 -27 -16 -7 0 -16
-9 -19 -20 -3 -11 -13 -20 -21 -20 -12 0 -15 -11 -14 -42 1 -24 1 -47 0 -53
-1 -5 -2 -13 -1 -17 0 -5 -44 -8 -99 -8 l-101 0 3 -262 c3 -250 4 -265 26
-307 12 -25 22 -46 22 -48 0 -1 -18 -15 -40 -29 -22 -15 -40 -30 -40 -35 0 -5
30 -40 66 -79 66 -69 180 -140 226 -140 13 0 18 -6 17 -17 -5 -28 18 -60 41
-58 25 2 52 38 44 59 -5 12 0 16 18 16 63 0 210 107 274 199 16 22 16 24 -12
47 -16 13 -35 23 -41 24 -17 0 -17 0 15 61 l27 53 0 256 0 255 -110 6 c-60 3
-105 6 -100 7 6 1 11 29 13 63 2 37 0 59 -6 55 -6 -3 -13 6 -16 19 -4 15 -11
23 -17 19 -6 -3 -17 3 -24 14 -17 23 -44 32 -71 22z m57 -34 c27 -13 69 -72
68 -95 0 -9 -9 2 -20 24 -10 22 -19 36 -19 31 0 -6 -6 -2 -13 9 -10 13 -16 15
-21 6 -6 -9 -12 -7 -22 6 -13 17 -14 17 -25 -1 -9 -15 -13 -16 -20 -5 -8 12
-12 11 -23 -3 -7 -10 -16 -15 -20 -11 -4 4 -9 -3 -13 -15 -5 -22 -33 -31 -33
-11 0 5 4 8 9 5 4 -3 13 6 20 20 6 14 15 23 20 19 5 -3 18 5 28 18 10 13 24
22 31 19 6 -2 12 2 12 10 0 11 2 11 9 0 4 -8 19 -19 32 -26z m-31 -41 c0 -18
11 -19 29 -2 11 10 12 9 7 -1 -4 -7 -2 -19 4 -27 7 -8 9 -15 6 -15 -4 0 -2 -9
4 -20 10 -19 8 -20 -72 -20 -57 0 -78 3 -68 10 13 8 13 10 -2 10 -15 0 -16 4
-6 25 6 13 14 22 19 19 4 -2 12 3 17 12 6 11 11 13 16 5 10 -16 26 -14 26 4 0
8 5 15 10 15 6 0 10 -7 10 -15z m-116 -71 c3 -8 2 -12 -4 -9 -6 3 -10 10 -10
16 0 14 7 11 14 -7z m176 -30 c-83 -8 -190 -8 -190 -1 0 4 51 6 113 5 61 -1
96 -3 77 -4z m-72 -21 c-10 -2 -26 -2 -35 0 -10 3 -2 5 17 5 19 0 27 -2 18 -5z
m-216 -45 c2 -15 10 -23 23 -23 14 0 20 6 19 23 0 12 3 22 8 22 8 0 12 -15 9
-37 -1 -7 5 -13 14 -13 10 0 13 5 9 13 -6 10 -4 10 7 0 20 -19 28 -16 24 12
-1 14 2 25 6 25 5 0 9 -11 9 -25 0 -20 5 -25 26 -25 23 0 26 3 22 25 -3 14 -1
25 3 25 5 0 9 -11 9 -25 0 -16 6 -25 16 -25 10 0 14 6 10 15 -3 9 0 15 10 15
8 0 12 5 9 10 -3 6 1 10 10 10 14 0 14 -2 0 -24 l-16 -23 51 -2 c38 0 49 3 44
12 -5 9 -4 9 7 0 21 -20 32 -15 27 12 -3 14 -1 25 3 25 9 0 13 -15 10 -37 -1
-8 9 -13 25 -13 23 0 26 3 22 25 -5 24 -3 25 48 25 l54 0 0 -243 0 -244 -30
-60 c-53 -105 -193 -213 -278 -213 -45 0 -146 54 -199 108 -28 28 -64 77 -80
109 l-28 58 -3 243 -3 242 50 0 c44 0 50 -3 53 -22z m28 2 c0 -11 -2 -20 -4
-20 -2 0 -6 9 -9 20 -3 11 -1 20 4 20 5 0 9 -9 9 -20z m280 0 c0 -11 -4 -20
-10 -20 -5 0 -14 9 -20 20 -9 17 -8 20 10 20 13 0 20 -7 20 -20z m170 -600 c0
-5 -5 -10 -11 -10 -5 0 -7 5 -4 10 3 6 8 10 11 10 2 0 4 -4 4 -10z m-498 -54
c33 -38 53 -53 66 -49 17 4 122 -42 122 -54 0 -3 -12 -2 -27 1 -22 5 -24 4
-11 -4 9 -6 37 -13 62 -16 37 -5 47 -3 52 9 8 21 112 69 134 62 13 -4 33 11
68 52 28 32 54 55 58 51 9 -10 -94 -116 -145 -149 -94 -60 -216 -60 -300 2
-53 38 -66 37 -21 -3 19 -16 26 -25 15 -19 -35 19 -59 41 -52 47 3 4 -14 30
-38 59 -25 29 -45 55 -45 59 0 16 19 2 62 -48z m13 -91 c60 -53 39 -62 -23 -9
-47 40 -77 84 -45 65 10 -6 41 -31 68 -56z m505 46 c-12 -24 -90 -91 -104 -91
-9 0 102 108 112 110 1 0 -2 -9 -8 -19z m-91 -47 c-13 -15 -62 -44 -76 -44 -6
0 76 57 86 59 2 1 -2 -6 -10 -15z m-186 -21 c-7 -2 -19 -2 -25 0 -7 3 -2 5 12
5 14 0 19 -2 13 -5z m-103 -28 c14 -8 21 -14 15 -14 -5 0 -21 6 -35 14 -14 8
-20 14 -15 14 6 0 21 -6 35 -14z m103 -22 c-7 -2 -21 -2 -30 0 -10 3 -4 5 12
5 17 0 24 -2 18 -5z m50 0 c-7 -2 -19 -2 -25 0 -7 3 -2 5 12 5 14 0 19 -2 13
-5z m-40 -80 c-13 -2 -33 -2 -45 0 -13 2 -3 4 22 4 25 0 35 -2 23 -4z"/>
<path d="M6844 1173 c1 -57 5 -99 11 -100 13 -4 14 19 1 36 -8 11 -8 13 2 7
10 -6 12 9 10 73 -4 119 -24 105 -24 -16z"/>
<path d="M6892 1056 l3 -214 40 -58 c46 -67 103 -113 162 -133 38 -13 45 -12
96 12 65 30 127 90 159 155 21 44 23 62 26 250 l3 202 -246 0 -246 0 3 -214z
m215 168 c-9 -9 -28 6 -21 18 4 6 10 6 17 -1 6 -6 8 -13 4 -17z m63 6 c0 -5
-4 -10 -10 -10 -5 0 -10 5 -10 10 0 6 5 10 10 10 6 0 10 -4 10 -10z m-120 -10
c0 -5 -4 -10 -10 -10 -5 0 -10 5 -10 10 0 6 5 10 10 10 6 0 10 -4 10 -10z
m180 0 c0 -5 -4 -10 -10 -10 -5 0 -10 5 -10 10 0 6 5 10 10 10 6 0 10 -4 10
-10z m-239 -23 c-13 -13 -26 -3 -16 12 3 6 11 8 17 5 6 -4 6 -10 -1 -17z m294
3 c-3 -5 -10 -10 -16 -10 -5 0 -9 5 -9 10 0 6 7 10 16 10 8 0 12 -4 9 -10z
m-330 -30 c3 -5 -1 -10 -9 -10 -9 0 -16 5 -16 10 0 6 4 10 9 10 6 0 13 -4 16
-10z m375 0 c0 -5 -7 -10 -16 -10 -8 0 -12 5 -9 10 3 6 10 10 16 10 5 0 9 -4
9 -10z m-200 -36 l14 -30 16 30 c20 42 49 44 113 8 28 -16 60 -28 70 -27 10 2
17 -3 17 -12 0 -12 -3 -13 -14 -4 -12 10 -13 8 -9 -8 3 -12 0 -27 -6 -34 -6
-8 -8 -17 -4 -20 3 -4 1 -13 -5 -20 -7 -8 -9 -17 -5 -21 4 -3 -3 -13 -15 -22
-12 -8 -22 -20 -22 -26 0 -7 7 -3 15 8 8 10 15 14 15 8 0 -19 -41 -148 -52
-161 -6 -7 -29 -13 -53 -13 -39 0 -43 3 -53 33 l-11 32 2 -33 2 -33 -56 -4
c-31 -2 -60 0 -66 3 -18 12 -29 45 -58 165 -23 96 -26 122 -17 138 10 15 9 19
0 19 -7 0 16 14 52 30 80 37 110 36 130 -6z m-199 -126 c11 -40 23 -80 25 -89
3 -11 -2 -15 -18 -13 -13 1 -26 3 -30 3 -8 1 -11 171 -3 171 2 0 14 -33 26
-72z m429 -30 c0 -51 -4 -88 -8 -82 -4 6 -15 10 -24 8 -10 -1 -18 0 -18 4 0
13 42 162 46 162 2 0 4 -42 4 -92z m-243 -264 c-3 -3 -12 -4 -19 -1 -8 3 -5 6
6 6 11 1 17 -2 13 -5z m81 -1 c-10 -2 -28 -2 -40 0 -13 2 -5 4 17 4 22 1 32
-1 23 -4z m-88 -23 c0 -5 -7 -10 -15 -10 -8 0 -15 5 -15 10 0 6 7 10 15 10 8
0 15 -4 15 -10z m75 0 c4 -6 -7 -10 -24 -10 -17 0 -31 4 -31 8 0 11 48 13 55
2z"/>
<path d="M7007 1119 c-9 -5 -22 -7 -27 -4 -6 4 -9 3 -8 -2 1 -4 -3 -17 -9 -28
-14 -25 -6 -70 15 -87 12 -10 14 -10 8 0 -4 6 -3 12 3 12 6 0 15 -9 21 -20 6
-11 18 -20 27 -20 16 0 16 1 0 13 -17 12 -22 32 -19 75 3 32 49 49 71 26 12
-12 13 -18 4 -21 -19 -7 -16 -20 7 -26 23 -6 26 12 8 46 -25 47 -60 60 -101
36z"/>
<path d="M7251 1104 c0 -11 3 -14 6 -6 3 7 2 16 -1 19 -3 4 -6 -2 -5 -13z"/>
<path d="M7315 1080 c3 -5 8 -10 11 -10 2 0 4 5 4 10 0 6 -5 10 -11 10 -5 0
-7 -4 -4 -10z"/>
<path d="M7140 1060 c0 -5 5 -10 10 -10 6 0 10 5 10 10 0 6 -4 10 -10 10 -5 0
-10 -4 -10 -10z"/>
<path d="M7035 1050 c-3 -6 1 -13 10 -16 19 -8 30 0 20 15 -8 14 -22 14 -30 1z"/>
<path d="M7140 986 c0 -21 17 -29 37 -16 15 9 14 10 -7 5 -24 -6 -24 -5 -6 9
19 16 19 16 -2 16 -12 0 -22 -6 -22 -14z"/>
<path d="M7032 937 c16 -6 31 -19 34 -30 4 -13 12 -17 25 -14 10 3 19 1 19 -4
0 -12 -34 -11 -47 2 -7 7 -19 3 -39 -15 -27 -23 -27 -25 -8 -26 11 0 24 3 28
7 4 4 19 9 34 10 15 2 32 10 38 18 15 20 22 19 27 -2 4 -16 5 -16 6 0 1 11 -7
21 -19 24 -11 3 -20 13 -20 22 0 13 -11 16 -53 17 -46 1 -49 0 -25 -9z"/>
<path d="M7182 931 c-11 -7 -11 -9 0 -14 9 -3 15 1 15 9 0 8 -1 14 -1 14 -1 0
-7 -4 -14 -9z"/>
<path d="M7010 900 c-13 -8 -13 -10 2 -10 9 0 20 5 23 10 8 13 -5 13 -25 0z"/>
<path d="M7220 900 c-9 -6 -10 -10 -3 -10 6 0 15 5 18 10 8 12 4 12 -15 0z"/>
<path d="M7402 1193 c-1 -50 1 -74 7 -68 15 15 18 145 3 145 -4 0 -8 -35 -10
-77z"/>
<path d="M7407 1105 c-17 -16 -11 -58 6 -52 6 2 12 18 12 35 1 37 1 37 -18 17z"/>
<path d="M6844 1004 c-1 -27 2 -40 7 -32 6 9 9 9 9 1 0 -6 -4 -14 -9 -17 -5
-3 -8 -17 -8 -31 0 -19 3 -23 12 -15 16 14 16 140 0 140 -6 0 -11 -19 -11 -46z"/>
<path d="M7404 1013 c-6 -23 -7 -73 -2 -118 3 -26 18 -16 19 13 4 112 3 132
-3 132 -4 0 -11 -12 -14 -27z"/>
<path d="M6847 883 c-10 -10 -8 -25 2 -19 5 3 9 0 8 -7 -1 -32 4 -48 13 -42 6
3 7 -1 4 -9 -7 -19 34 -79 48 -70 6 4 8 1 6 -7 -3 -8 -1 -22 4 -33 8 -14 12
-16 18 -6 5 8 -4 32 -25 64 -19 28 -40 70 -47 94 -13 42 -18 48 -31 35z"/>
<path d="M7406 863 c-7 -7 -19 -31 -47 -95 -5 -10 -4 -20 1 -23 11 -7 64 98
58 115 -2 6 -7 8 -12 3z"/>
<path d="M7320 720 c-8 -5 -10 -10 -5 -10 6 -1 0 -5 -12 -10 -13 -5 -23 -16
-23 -25 0 -8 -4 -14 -9 -12 -10 2 -15 -12 -4 -15 13 -4 72 48 68 60 -3 7 -1
10 4 7 5 -3 12 -1 16 5 8 13 -15 13 -35 0z"/>
<path d="M6960 680 c0 -5 5 -10 12 -10 6 0 8 -3 5 -7 -9 -8 44 -44 55 -37 16
10 7 25 -12 19 -15 -5 -18 -3 -14 9 3 8 -3 19 -15 25 -25 14 -31 14 -31 1z"/>
<path d="M7230 634 c0 -9 -5 -12 -12 -8 -7 4 -8 3 -4 -5 6 -9 11 -9 22 0 7 6
11 15 8 20 -8 14 -14 11 -14 -7z"/>
<path d="M7046 623 c-4 -10 -4 -14 0 -11 3 4 13 0 22 -8 8 -9 25 -14 38 -11
14 2 21 0 17 -6 -4 -7 1 -8 13 -3 21 9 43 14 61 15 7 1 10 7 7 15 -5 14 -44
11 -44 -4 0 -4 -22 -3 -50 3 -27 5 -47 13 -44 18 3 5 1 9 -4 9 -6 0 -13 -8
-16 -17z"/>
<path d="M6985 580 c17 -11 35 -20 40 -20 6 0 -5 9 -23 20 -42 26 -56 26 -17
0z"/>
<path d="M800 1277 c-47 -16 -51 -43 -9 -61 17 -7 41 -11 53 -8 16 5 11 8 -21
15 -24 4 -43 12 -43 17 0 27 172 40 256 19 54 -14 56 -26 7 -34 -48 -8 -86
-23 -61 -24 9 -1 33 -10 52 -22 20 -11 41 -19 48 -16 7 3 -3 12 -22 20 -19 9
-33 17 -30 17 3 1 13 3 23 5 24 4 47 24 47 40 0 7 -18 20 -40 29 -48 19 -207
21 -260 3z"/>
<path d="M797 1185 c-44 -15 -52 -21 -40 -28 5 -3 31 5 59 18 54 26 42 32 -19
10z"/>
<path d="M850 1148 c-52 -27 -99 -91 -126 -170 -9 -29 -22 -56 -28 -60 -8 -6
-8 -8 0 -8 7 0 9 -15 4 -45 -4 -24 -3 -50 1 -57 4 -6 6 -27 3 -45 -2 -18 0
-33 5 -33 5 0 17 -20 27 -45 9 -25 21 -45 25 -45 5 0 9 -4 9 -9 0 -17 66 -80
96 -92 45 -19 105 -18 142 2 17 10 32 16 32 13 0 -3 14 10 30 28 17 18 30 38
30 45 0 7 4 13 8 13 10 0 39 63 45 95 2 11 9 19 15 17 7 -1 12 2 12 8 0 5 -4
10 -10 10 -5 0 -8 20 -6 43 5 66 -12 153 -40 210 -32 64 -53 89 -68 80 -6 -3
-8 -3 -4 2 20 22 -60 65 -121 65 -20 0 -57 -10 -81 -22z m148 -29 c2 -5 9 -9
15 -9 15 0 57 -44 57 -59 0 -6 4 -11 9 -11 5 0 15 -17 22 -37 17 -51 19 -61
24 -113 3 -32 1 -39 -5 -25 -5 11 -9 30 -9 42 -2 43 -43 135 -77 168 -44 45
-101 61 -147 42 -39 -17 -92 -77 -109 -124 -7 -18 -16 -33 -20 -33 -11 0 -10
18 2 25 6 3 10 15 10 26 0 25 90 116 121 122 32 6 103 -3 107 -14z m24 -83
c15 -30 15 -36 2 -55 -16 -22 -6 -29 14 -9 7 7 12 8 12 2 0 -32 -51 -44 -84
-19 -11 8 -15 15 -10 15 6 0 15 -5 22 -12 8 -8 12 -9 12 -1 0 6 3 18 6 27 3 9
1 16 -6 16 -6 0 -8 -6 -4 -12 5 -10 4 -10 -7 0 -11 10 -11 16 -1 32 6 11 12
27 12 35 0 26 16 17 32 -19z m-36 -295 c53 -101 54 -104 37 -124 l-18 -21 27
20 c15 10 38 43 51 72 14 30 27 50 30 45 10 -16 -48 -117 -85 -146 -73 -58
-183 -31 -235 57 -19 32 -38 80 -35 90 2 4 -1 13 -6 20 -9 11 -14 174 -6 187
2 4 45 -16 95 -44 l91 -52 54 -104z m142 54 c0 -25 -4 -45 -9 -45 -11 0 -11
16 -3 59 9 43 12 39 12 -14z"/>
<path d="M820 850 c0 -5 5 -10 11 -10 5 0 7 5 4 10 -3 6 -8 10 -11 10 -2 0 -4
-4 -4 -10z"/>
<path d="M807 817 c-10 -27 5 -67 25 -67 14 0 18 5 14 16 -3 9 -6 18 -6 20 0
3 -4 2 -10 -1 -10 -6 -14 7 -11 33 2 16 -6 16 -12 -1z"/>
<path d="M830 821 c0 -6 4 -13 10 -16 6 -3 7 1 4 9 -7 18 -14 21 -14 7z"/>
<path d="M899 733 c-8 -9 -8 -13 0 -13 6 0 11 5 11 11 0 5 4 8 9 4 5 -3 12 -2
15 3 9 14 -23 10 -35 -5z"/>
<path d="M950 732 c0 -5 7 -13 16 -16 10 -4 14 -1 12 6 -5 15 -28 23 -28 10z"/>
<path d="M923 714 c3 -4 0 -18 -8 -33 -9 -18 -10 -32 -4 -44 12 -20 -1 -23
-20 -4 -10 10 -11 8 -5 -6 3 -10 3 -17 -2 -16 -30 5 -37 -2 -16 -17 13 -9 26
-13 29 -10 4 3 1 6 -6 6 -7 0 -9 5 -6 10 4 7 12 7 25 0 13 -7 27 -6 44 2 27
12 37 32 12 22 -11 -4 -13 0 -9 15 6 25 -15 81 -30 81 -6 0 -8 -3 -4 -6z"/>
<path d="M986 593 c-6 -14 -5 -15 5 -6 7 7 10 15 7 18 -3 3 -9 -2 -12 -12z"/>
<path d="M950 580 c-9 -6 -10 -10 -3 -10 6 0 15 5 18 10 8 12 4 12 -15 0z"/>
<path d="M701 1129 c-13 -11 -30 -18 -38 -15 -7 3 -13 2 -13 -2 0 -20 -64 -44
-102 -39 -24 3 -37 2 -31 -4 21 -21 98 -14 123 11 11 11 28 20 38 20 17 1 62
32 62 44 0 11 -15 5 -39 -15z"/>
<path d="M1120 1142 c0 -11 55 -42 73 -42 8 0 17 -6 20 -14 3 -8 23 -20 44
-25 50 -14 56 -14 79 5 18 15 18 15 -3 9 -32 -9 -88 4 -111 25 -11 10 -22 16
-25 13 -3 -3 -19 4 -35 16 -32 22 -42 26 -42 13z"/>
<path d="M760 1129 c0 -5 5 -7 10 -4 6 3 10 8 10 11 0 2 -4 4 -10 4 -5 0 -10
-5 -10 -11z"/>
<path d="M490 1121 c0 -5 10 -11 23 -15 36 -9 43 -6 23 9 -22 17 -46 20 -46 6z"/>
<path d="M1324 1114 c-18 -15 -18 -15 6 -10 14 3 28 6 33 6 4 0 7 5 7 10 0 15
-24 12 -46 -6z"/>
<path d="M2050 1080 l0 -40 54 0 54 0 4 -162 c3 -152 5 -166 27 -202 38 -60
91 -79 237 -84 150 -5 217 10 262 63 43 48 52 90 52 248 l0 137 50 0 50 0 0
40 0 40 -165 0 -165 0 0 -40 0 -40 40 0 40 0 0 -150 c0 -88 -5 -159 -11 -173
-16 -34 -49 -47 -124 -47 -128 0 -145 26 -145 229 l0 141 40 0 40 0 0 40 0 40
-170 0 -170 0 0 -40z"/>
<path d="M2420 1066 l0 -55 -37 -3 -38 -3 0 -133 c0 -131 1 -134 25 -154 l25
-20 3 126 3 126 39 0 40 0 -1 63 c0 56 -3 64 -30 85 l-29 24 0 -56z"/>
<path d="M2960 1080 l0 -40 55 0 55 0 0 -175 0 -175 -55 0 -55 0 0 -45 0 -45
169 0 169 0 4 41 c2 22 2 42 -1 45 -2 2 -26 4 -53 4 l-48 0 0 145 c0 80 2 145
4 145 2 0 60 -85 128 -190 l123 -190 108 0 107 0 0 220 0 220 50 0 51 0 -3 40
-2 40 -165 0 -166 0 0 -40 0 -40 53 0 52 0 0 -145 c0 -80 -2 -145 -4 -145 -2
0 -57 83 -121 185 l-117 185 -169 0 -169 0 0 -40z"/>
<path d="M3880 1080 l0 -40 55 0 55 0 0 -174 0 -175 -52 -3 -53 -3 0 -40 0
-40 333 -3 332 -2 0 105 0 105 -75 0 -75 0 0 -60 0 -60 -130 0 -130 0 0 70 0
70 70 0 70 0 0 30 c0 29 0 29 -67 32 l-68 3 0 70 0 70 128 3 127 3 0 -61 0
-60 75 0 75 0 0 100 0 100 -335 0 -335 0 0 -40z"/>
<path d="M4680 1080 l0 -40 50 0 50 0 0 -175 0 -175 -50 0 -50 0 0 -45 0 -45
183 2 182 3 0 40 0 40 -52 3 -53 3 0 70 0 69 65 0 65 0 0 30 0 30 -65 0 -65 0
0 75 0 75 125 0 125 0 0 -60 0 -60 75 0 75 0 0 100 0 100 -330 0 -330 0 0 -40z"/>
<path d="M5503 907 l-92 -212 -45 -3 -46 -3 0 -45 0 -44 160 0 160 0 0 44 0
45 -44 3 -45 3 21 48 21 47 116 0 117 0 22 -45 c12 -25 22 -47 22 -50 0 -2
-19 -5 -42 -7 -43 -3 -43 -3 -43 -43 l0 -40 173 -3 172 -2 0 44 0 45 -46 3
-46 3 -95 213 -95 212 -127 0 -126 -1 -92 -212z m251 46 c20 -45 36 -86 36
-92 0 -7 -31 -11 -86 -11 -47 0 -84 3 -82 8 2 4 21 49 42 100 22 51 43 89 47
85 4 -4 24 -45 43 -90z"/>
<path d="M5686 937 c-9 -23 -16 -46 -16 -50 0 -14 58 -7 64 8 5 13 -19 85 -28
85 -2 0 -11 -19 -20 -43z"/>
<path d="M2871 1063 l3 -48 -52 -3 -52 -3 0 -122 c-1 -198 -22 -250 -119 -296
-52 -24 -66 -26 -191 -26 -74 0 -148 3 -165 8 -29 7 -29 7 -10 -9 57 -46 106
-59 225 -59 105 0 119 3 165 27 115 60 146 122 151 293 l3 120 51 3 50 3 0 58
c0 47 -4 61 -23 79 -34 32 -39 28 -36 -25z"/>
<path d="M3345 1100 c15 -28 148 -235 156 -245 5 -5 9 26 9 73 l0 82 -50 0
c-42 0 -50 3 -50 18 0 10 -16 34 -37 53 -20 18 -32 27 -28 19z"/>
<path d="M3798 1060 l4 -50 -51 0 -51 0 0 -221 0 -221 -111 4 -110 3 33 -27
c31 -26 38 -27 141 -28 l107 0 0 215 0 215 45 0 45 0 0 58 c0 48 -4 62 -23 80
-13 12 -25 22 -28 22 -2 0 -2 -22 -1 -50z"/>
<path d="M4578 1004 l-3 -109 -85 -5 -85 -5 29 -22 c25 -20 41 -23 112 -23
l84 0 0 113 c0 108 -1 115 -25 137 l-24 23 -3 -109z"/>
<path d="M5370 1000 l0 -110 -86 0 -86 0 30 -25 c27 -22 39 -25 116 -25 l86 0
0 113 c0 106 -2 115 -23 135 -13 12 -26 22 -30 22 -4 0 -7 -49 -7 -110z"/>
<path d="M5967 918 c87 -196 88 -197 120 -198 l31 0 -60 138 c-52 119 -68 145
-119 197 l-59 60 87 -197z"/>
<path d="M568 1003 c-19 -3 -28 -10 -28 -23 0 -28 33 -41 93 -38 45 3 52 6 55
25 3 18 -4 24 -35 32 -21 6 -42 10 -48 9 -5 0 -22 -3 -37 -5z m86 -19 c27 -10
7 -24 -34 -24 -46 0 -72 9 -64 21 6 10 74 12 98 3z"/>
<path d="M1205 1001 c-12 -5 -27 -17 -35 -27 -8 -10 -10 -15 -4 -11 7 4 14 0
18 -8 6 -16 69 -21 113 -9 25 7 38 33 24 47 -13 13 -91 19 -116 8z m99 -20 c8
-12 -19 -21 -65 -21 -40 0 -53 15 -21 23 31 8 81 7 86 -2z"/>
<path d="M2085 985 c38 -31 45 -31 45 0 0 22 -4 25 -37 25 l-38 0 30 -25z"/>
<path d="M2520 1002 c0 -4 9 -13 19 -19 15 -10 20 -9 24 1 3 8 3 17 0 20 -9 9
-43 7 -43 -2z"/>
<path d="M2970 1006 c0 -2 16 -16 35 -30 l35 -27 0 30 c0 29 -3 31 -35 31 -19
0 -35 -2 -35 -4z"/>
<path d="M3915 985 c38 -31 45 -31 45 0 0 22 -4 25 -37 25 l-38 0 30 -25z"/>
<path d="M4174 996 c-3 -8 -4 -27 -2 -43 2 -22 9 -29 31 -31 19 -2 27 1 27 12
0 13 13 16 70 16 l70 0 0 30 0 30 -95 0 c-73 0 -97 -3 -101 -14z"/>
<path d="M4690 1002 c0 -4 14 -16 30 -25 l30 -18 0 25 c0 22 -4 26 -30 26 -16
0 -30 -4 -30 -8z"/>
<path d="M4970 965 c0 -41 2 -45 25 -45 15 0 25 6 25 15 0 11 17 15 73 17 69
3 72 4 72 28 0 25 -1 25 -97 28 l-98 3 0 -46z"/>
<path d="M4310 845 l0 -45 -70 0 -70 0 0 -40 c0 -37 2 -40 29 -40 16 0 31 6
35 15 4 11 22 15 71 15 l65 0 0 48 c0 42 -4 51 -30 70 l-30 23 0 -46z"/>
<path d="M5100 846 l0 -46 -65 0 -65 0 0 -40 c0 -36 3 -40 24 -40 13 0 26 7
30 15 4 11 22 15 71 15 l65 0 0 48 c0 34 -5 53 -17 64 -39 33 -43 31 -43 -16z"/>
<path d="M3230 800 c0 -79 0 -80 25 -80 23 0 25 4 25 46 0 40 -30 114 -46 114
-2 0 -4 -36 -4 -80z"/>
<path d="M506 837 c-21 -16 -12 -43 17 -51 53 -14 157 2 157 25 0 32 -137 53
-174 26z m118 -16 c7 -11 -17 -21 -54 -21 -16 0 -35 3 -44 6 -29 11 -5 24 44
24 27 0 51 -4 54 -9z"/>
<path d="M1218 834 c-36 -19 -35 -30 3 -43 51 -18 114 -14 140 9 24 20 24 20
5 35 -25 19 -112 19 -148 -1z m130 -13 c19 -11 -8 -21 -58 -21 -39 0 -61 14
-38 23 21 9 82 7 96 -2z"/>
<path d="M4578 689 l-3 -114 -338 0 c-185 0 -337 -3 -337 -7 0 -3 16 -15 36
-27 34 -20 48 -21 365 -21 l329 0 0 118 c0 113 -1 120 -25 142 l-24 23 -3
-114z"/>
<path d="M5600 740 c-10 -19 -8 -20 106 -20 102 0 115 2 110 16 -3 9 -6 18 -6
20 0 2 -45 4 -100 4 -89 0 -100 -2 -110 -20z"/>
<path d="M585 688 c-47 -17 -67 -38 -53 -56 9 -11 27 -13 69 -9 103 9 151 70
59 74 -25 1 -58 -3 -75 -9z m81 -23 c-23 -17 -73 -28 -107 -23 -22 3 -22 4 11
20 19 10 53 18 75 17 37 0 39 -1 21 -14z"/>
<path d="M1166 685 c-9 -25 -9 -24 37 -45 54 -25 132 -27 141 -3 11 28 -36 52
-113 59 -48 5 -59 3 -65 -11z m128 -20 c20 -9 34 -19 32 -24 -10 -15 -136 17
-136 34 0 11 70 4 104 -10z"/>
<path d="M3334 630 c2 -27 3 -51 2 -52 -1 -1 -82 -4 -181 -7 l-180 -6 36 -22
c34 -22 47 -23 208 -23 l171 0 0 58 c0 48 -4 62 -23 80 -13 12 -26 22 -30 22
-3 0 -4 -22 -3 -50z"/>
<path d="M5078 628 l-3 -53 -195 -3 -195 -2 40 -25 c39 -23 47 -24 223 -25
l183 0 -3 66 c-3 56 -7 69 -25 81 -22 14 -22 14 -25 -39z"/>
<path d="M5670 631 c0 -63 1 -63 -193 -59 -81 2 -147 1 -147 -2 0 -3 19 -15
43 -28 38 -20 55 -22 200 -22 l157 0 0 51 c0 56 -11 83 -40 99 -19 10 -20 7
-20 -39z"/>
<path d="M6160 626 l0 -56 -182 0 -183 -1 30 -24 c29 -24 33 -25 213 -25 l182
0 0 58 c0 44 -5 63 -17 74 -40 34 -43 32 -43 -26z"/>
<path d="M721 572 c-10 -18 -8 -20 14 -14 27 8 34 25 11 30 -8 2 -19 -6 -25
-16z"/>
<path d="M1101 573 c6 -7 19 -13 29 -13 10 0 30 -13 43 -30 28 -33 43 -39 33
-14 -4 12 -1 14 13 9 11 -3 22 -1 26 4 7 12 -72 54 -86 46 -5 -4 -15 -2 -22 3
-7 5 -20 9 -29 9 -14 0 -15 -3 -7 -14z"/>
<path d="M648 554 c-29 -15 -37 -34 -15 -34 15 0 28 9 46 33 16 21 5 21 -31 1z"/>
<path d="M620 501 c1 -39 178 -91 313 -91 118 0 277 39 308 76 15 19 4 18 -56
-5 -27 -10 -95 -24 -151 -31 -122 -15 -266 -1 -356 35 -32 12 -58 20 -58 16z"/>
<path d="M6690 154 c-124 -68 -236 -130 -250 -138 -23 -14 -3 -15 227 -16
l252 0 3 140 c2 77 1 139 -2 139 -3 -1 -106 -57 -230 -125z"/>
<path d="M4248 99 l3 -99 115 0 115 0 -49 42 c-109 95 -168 144 -177 150 -6 4
-9 -29 -7 -93z"/>
<path d="M3245 30 l-29 -30 72 0 73 0 -34 30 c-19 17 -39 30 -44 30 -5 0 -22
-13 -38 -30z"/>
</g>
</svg>
